<?xml version="1.0" standalone="no"?>
<!DOCTYPE svg PUBLIC "-//W3C//DTD SVG 20010904//EN"
 "http://www.w3.org/TR/2001/REC-SVG-20010904/DTD/svg10.dtd">
<svg version="1.0" xmlns="http://www.w3.org/2000/svg"
 width="882.000000pt" height="1107.000000pt" viewBox="0 0 882.000000 1107.000000"
 preserveAspectRatio="xMidYMid meet">
<metadata>
Created by potrace 1.15, written by Peter Selinger 2001-2017
</metadata>
<g transform="translate(0.000000,1107.000000) scale(0.100000,-0.100000)"
fill="#000000" stroke="none">
<path d="M0 7320 c0 -3199 2 -3750 14 -3750 15 0 26 21 26 50 0 9 7 23 15 30
8 7 15 20 15 29 0 9 9 22 21 29 15 10 19 20 15 37 -4 17 -1 24 14 28 11 3 25
16 30 29 16 34 36 68 49 81 6 6 11 21 11 33 0 14 8 25 20 29 14 4 20 15 20 36
0 19 5 29 15 29 9 0 20 12 26 27 5 14 23 46 39 70 16 23 27 50 24 58 -4 10 3
18 20 25 18 7 26 17 26 34 0 13 7 26 14 29 8 3 27 31 41 61 15 31 31 56 36 56
5 0 9 14 9 30 0 20 5 30 16 30 8 0 22 15 30 32 21 46 40 78 53 91 6 6 11 19
11 29 0 9 9 22 20 28 11 6 20 21 20 34 0 13 7 26 15 30 8 3 20 16 26 28 15 34
35 68 48 81 6 6 11 22 11 35 0 15 7 26 20 29 14 4 20 14 20 34 0 18 5 29 14
29 8 0 24 21 37 47 12 25 31 55 42 66 12 12 17 26 13 42 -5 19 -2 24 16 27 16
2 24 11 26 28 2 14 10 28 17 33 8 4 24 29 37 55 12 26 30 55 39 64 10 10 15
26 12 38 -4 14 -1 20 11 20 9 0 22 12 28 28 7 15 25 43 40 63 15 20 28 46 28
58 0 11 9 25 20 31 11 6 20 21 20 34 0 13 7 26 15 30 8 3 20 16 26 28 15 34
35 68 48 81 6 6 11 24 11 39 0 21 5 28 20 28 13 0 22 9 26 28 4 15 13 32 20
37 7 6 23 30 35 55 12 25 29 53 37 62 8 9 11 25 7 37 -4 15 -1 20 17 23 15 2
24 11 26 24 2 12 12 30 23 40 10 9 19 23 19 29 0 7 7 18 15 25 8 7 15 21 15
31 0 10 9 23 21 29 15 8 19 18 15 34 -4 16 1 24 17 31 12 6 24 19 26 30 2 11
6 22 10 25 18 14 51 72 51 89 0 11 9 25 20 31 11 6 20 21 20 34 0 13 7 26 15
30 8 3 20 16 26 28 16 36 34 66 52 86 10 11 14 26 10 40 -4 18 -1 22 16 22 14
0 23 8 27 28 4 15 13 32 20 37 7 6 25 34 39 63 14 28 30 52 36 52 5 0 9 13 9
29 0 20 6 30 20 34 11 3 20 14 20 25 0 10 9 27 20 37 11 10 20 24 20 30 0 7 7
18 15 25 8 7 15 21 15 31 0 10 9 23 21 30 14 7 19 17 16 30 -3 12 2 23 14 30
11 6 24 20 30 32 15 34 35 67 48 80 6 6 11 21 11 34 0 12 9 27 20 33 12 6 20
21 20 35 0 15 6 25 14 25 8 0 26 24 40 53 14 30 32 60 40 67 10 8 14 21 10 35
-5 19 -1 24 18 27 16 2 24 11 26 28 2 13 10 29 17 35 8 5 26 34 40 63 14 28
30 52 36 52 5 0 9 14 9 30 0 20 5 30 15 30 8 0 22 15 30 33 21 44 41 77 54 90
6 6 11 19 11 29 0 9 9 22 20 28 11 6 20 21 20 33 0 12 9 28 20 35 11 7 20 17
20 23 0 6 14 31 30 56 17 24 30 54 30 66 0 13 9 26 23 32 12 6 22 18 22 28 0
10 8 23 18 28 9 6 17 16 17 23 0 8 7 19 15 26 8 7 15 20 15 30 0 9 9 25 21 36
13 12 18 25 15 40 -5 18 -1 23 16 26 12 2 25 12 28 23 3 11 17 39 32 62 16 24
28 47 28 52 0 6 11 22 25 37 13 14 22 31 19 36 -3 5 6 20 20 33 14 13 26 31
26 40 0 8 4 15 10 15 5 0 12 11 16 25 3 13 12 29 20 36 8 6 14 20 14 30 0 10
9 23 20 29 11 6 20 21 20 34 0 13 7 26 15 30 8 3 20 16 26 28 15 34 35 68 48
81 6 6 11 23 11 37 0 17 8 29 22 35 13 6 25 19 27 30 2 11 9 24 17 28 8 4 14
14 14 21 0 8 7 19 15 26 8 7 15 21 15 31 0 10 9 24 20 31 12 8 20 24 20 39 0
18 6 28 20 32 11 3 20 12 20 20 0 8 16 39 35 68 19 29 32 56 29 60 -2 5 7 16
21 25 18 12 25 24 22 36 -3 11 2 22 11 27 10 5 28 31 42 58 14 26 31 52 37 56
7 4 13 21 13 37 0 16 6 30 14 32 8 2 56 44 107 93 51 50 97 89 102 87 17 -5
47 10 47 24 0 9 11 14 35 14 22 0 37 6 44 18 12 21 40 23 266 23 254 0 258 0
274 -23 10 -14 22 -19 42 -16 20 3 30 0 34 -12 3 -9 25 -25 49 -36 73 -32 200
-163 220 -226 3 -10 15 -18 27 -18 17 0 20 -5 17 -25 -3 -16 1 -30 13 -41 11
-10 19 -23 19 -29 0 -7 7 -18 15 -25 8 -7 15 -21 15 -32 0 -11 9 -22 20 -25
13 -3 20 -14 20 -29 0 -13 9 -28 20 -34 12 -6 20 -21 20 -35 0 -14 4 -25 9
-25 5 0 14 -13 21 -30 7 -16 16 -30 21 -30 4 0 9 -10 11 -22 2 -13 13 -27 26
-33 15 -7 21 -16 18 -28 -2 -10 3 -25 12 -35 10 -9 26 -35 36 -57 11 -22 28
-49 37 -60 9 -11 19 -29 21 -40 2 -12 13 -21 25 -23 18 -3 21 -8 17 -31 -5
-24 0 -32 48 -64 29 -20 59 -37 66 -37 8 0 10 -8 7 -22 -7 -28 28 -88 50 -88
10 0 15 -10 15 -30 0 -18 6 -33 15 -36 8 -4 15 -14 15 -24 0 -10 7 -23 15 -30
8 -7 15 -18 15 -26 0 -7 9 -19 19 -26 10 -8 21 -25 23 -38 2 -17 10 -26 26
-28 20 -3 22 -8 17 -32 -4 -20 -2 -29 9 -33 9 -4 16 -13 16 -21 0 -8 6 -21 13
-28 7 -7 18 -25 24 -40 7 -16 20 -28 28 -28 10 0 15 -7 14 -17 -3 -33 1 -41
21 -46 12 -3 20 -14 20 -26 0 -12 12 -40 28 -64 15 -23 29 -51 32 -62 3 -11
16 -21 28 -23 18 -3 21 -8 16 -27 -4 -17 0 -26 15 -35 12 -6 21 -16 21 -23 0
-15 33 -81 51 -103 6 -8 9 -17 5 -21 -3 -4 -28 14 -54 39 -82 79 -179 135
-307 179 -61 21 -88 24 -215 23 -130 0 -154 -3 -225 -27 -145 -48 -276 -144
-358 -260 -24 -34 -213 -343 -419 -687 -207 -344 -764 -1271 -1239 -2060 -474
-789 -880 -1467 -900 -1505 -128 -239 -104 -507 64 -730 71 -94 196 -187 307
-228 76 -28 70 -19 -10 16 -161 70 -284 182 -357 325 -80 156 -96 353 -40 510
30 85 -38 -29 1072 1817 483 803 1018 1693 1189 1978 171 285 332 546 358 580
80 108 215 198 363 243 94 29 306 27 405 -4 88 -28 185 -79 255 -134 74 -59
155 -138 155 -150 0 -6 6 -19 14 -27 8 -9 25 -36 38 -61 44 -80 70 -120 79
-120 5 0 9 -9 9 -20 0 -11 9 -28 20 -37 11 -10 20 -25 20 -34 0 -9 7 -22 15
-29 8 -7 15 -19 15 -26 0 -8 9 -19 20 -26 11 -7 20 -23 20 -35 0 -12 9 -27 20
-33 11 -6 20 -21 20 -33 0 -25 83 -120 113 -130 9 -4 17 -13 17 -22 0 -8 7
-15 15 -15 9 0 15 -9 15 -24 0 -15 7 -26 20 -29 15 -4 20 -14 20 -36 0 -21 5
-31 15 -31 9 0 18 -12 22 -30 3 -16 12 -30 19 -30 8 0 14 -8 14 -18 0 -10 9
-25 20 -35 11 -9 20 -28 20 -42 0 -15 6 -25 14 -25 16 0 29 -27 20 -42 -3 -5
3 -12 15 -15 12 -3 21 -10 21 -15 0 -5 9 -21 20 -35 11 -14 20 -34 20 -43 0
-10 7 -20 15 -24 8 -3 15 -17 15 -30 0 -15 8 -30 20 -36 12 -6 20 -21 20 -35
0 -16 6 -25 15 -25 8 0 15 -6 15 -13 0 -8 9 -22 20 -32 11 -10 20 -29 20 -42
0 -13 6 -23 14 -23 15 0 26 -21 26 -51 0 -10 6 -19 14 -19 8 0 17 -13 21 -30
4 -16 13 -30 21 -30 8 0 14 -7 14 -15 0 -8 9 -24 20 -35 12 -12 18 -25 14 -31
-3 -5 6 -21 21 -35 14 -13 23 -29 20 -34 -4 -6 8 -25 25 -43 18 -18 37 -44 42
-59 6 -16 14 -28 19 -28 4 0 11 -16 15 -35 3 -19 12 -35 19 -35 8 0 16 -14 20
-30 4 -17 11 -30 16 -30 5 0 13 -8 16 -17 4 -10 15 -29 25 -42 10 -13 18 -32
18 -42 0 -11 7 -19 15 -19 14 0 20 -17 16 -47 -1 -7 5 -13 14 -13 9 0 21 -13
26 -30 6 -16 15 -30 20 -30 5 0 9 -6 9 -13 0 -8 9 -24 20 -37 11 -13 20 -34
20 -47 0 -14 6 -23 15 -23 9 0 18 -12 22 -30 3 -16 12 -30 19 -30 8 0 14 -7
14 -15 0 -8 9 -24 20 -35 11 -11 20 -27 20 -35 0 -8 9 -24 20 -35 11 -11 20
-27 20 -35 0 -8 9 -24 21 -36 11 -11 18 -27 15 -35 -3 -8 0 -14 7 -14 14 -1
54 -61 63 -95 3 -13 12 -26 20 -29 8 -3 14 -17 14 -31 0 -15 6 -25 14 -25 8 0
17 -13 21 -30 4 -17 13 -30 21 -30 8 0 14 -7 14 -16 0 -9 9 -27 20 -41 11 -14
20 -34 20 -44 0 -11 6 -19 14 -19 8 0 17 -14 21 -30 4 -16 10 -30 15 -30 8 0
20 -18 52 -80 7 -14 18 -31 25 -38 7 -7 13 -21 13 -30 0 -10 9 -25 20 -35 11
-9 20 -26 20 -37 0 -11 7 -20 15 -20 8 0 15 -5 15 -11 0 -6 9 -22 20 -36 11
-14 20 -32 20 -39 0 -8 9 -23 20 -34 11 -11 20 -29 20 -40 0 -11 6 -20 14 -20
8 0 17 -12 21 -27 3 -15 10 -30 13 -33 16 -12 62 -88 62 -102 0 -9 7 -18 15
-22 8 -3 15 -17 15 -31 0 -15 6 -25 14 -25 8 0 17 -14 21 -30 4 -16 13 -30 21
-30 8 0 14 -8 14 -18 0 -11 9 -27 20 -37 11 -10 20 -29 20 -42 0 -13 6 -23 14
-23 8 0 17 -13 21 -30 4 -16 10 -30 15 -30 8 0 20 -18 52 -80 7 -14 18 -31 25
-38 7 -7 13 -21 13 -30 0 -10 9 -25 20 -35 11 -9 20 -26 20 -37 0 -11 6 -20
14 -20 7 0 17 -8 20 -17 9 -23 36 -71 59 -103 9 -13 17 -32 17 -42 0 -10 5
-18 10 -18 6 0 16 -12 23 -27 6 -16 17 -34 24 -41 7 -7 13 -19 13 -27 0 -7 7
-15 15 -19 13 -5 15 423 15 3809 l0 3815 -4410 0 -4410 0 0 -3750z"/>
<path d="M0 1535 l0 -1535 4410 0 4410 0 0 1446 c0 1189 -2 1443 -13 1432 -7
-7 -16 -21 -20 -30 -3 -10 -11 -18 -17 -18 -5 0 -10 -6 -10 -14 0 -16 -107
-126 -122 -126 -6 0 -21 -9 -35 -20 -14 -11 -34 -20 -45 -20 -10 0 -21 -6 -24
-14 -3 -8 -27 -17 -57 -21 -28 -4 -57 -14 -65 -21 -11 -12 -381 -14 -2378 -14
-2308 0 -2364 0 -2364 19 0 34 -68 41 -401 41 -326 0 -387 -6 -397 -42 -3 -15
-15 -18 -58 -18 -40 0 -54 4 -54 14 0 16 -34 31 -50 21 -5 -3 -10 -13 -10 -21
0 -12 -65 -14 -450 -14 -389 0 -450 2 -450 15 0 40 -107 44 -117 4 -5 -18 -19
-19 -509 -19 -491 0 -504 1 -504 19 0 29 -59 45 -136 38 -56 -6 -64 -4 -69 13
-5 15 -15 20 -45 20 -30 0 -42 5 -50 21 -9 15 -18 19 -35 15 -17 -4 -25 -1
-30 11 -3 10 -34 40 -70 67 -35 26 -81 70 -102 97 -21 28 -45 49 -56 49 -15 0
-18 5 -13 24 4 15 0 28 -9 36 -8 7 -15 21 -15 30 0 29 -11 50 -26 50 -12 0
-14 -230 -14 -1535z m8494 262 c8 -12 25 -56 37 -97 l22 -75 28 84 c16 46 34
89 40 97 7 8 30 14 55 14 33 0 46 -5 54 -20 7 -14 10 -88 8 -216 -3 -207 -5
-214 -53 -214 -40 0 -49 16 -53 90 l-4 72 -19 -41 c-16 -37 -22 -41 -53 -41
-39 0 -44 5 -68 70 l-16 45 -1 -92 c-1 -84 -3 -92 -22 -98 -32 -10 -66 2 -73
27 -3 13 -6 92 -6 177 0 135 -2 152 -16 147 -9 -3 -31 -6 -50 -6 l-34 0 0
-159 c0 -169 -6 -191 -50 -191 -50 0 -50 1 -50 182 l0 169 -37 -3 -38 -3 2
-67 c2 -45 11 -86 28 -127 14 -33 25 -65 25 -71 0 -5 -15 -10 -34 -10 -29 0
-34 4 -40 30 -4 20 -14 34 -31 40 -24 9 -25 13 -25 94 0 82 20 156 42 156 4 0
8 14 8 30 l0 30 205 -1 c199 -1 206 -1 219 -22z m-5917 -252 c73 -19 176 -19
239 0 51 15 60 13 66 -20 3 -17 11 -20 55 -19 41 1 52 -2 56 -16 3 -12 19 -20
46 -25 22 -4 41 -10 41 -15 0 -4 14 -13 30 -19 17 -5 30 -15 30 -22 0 -7 11
-10 30 -7 19 3 30 0 30 -7 0 -7 36 -47 80 -89 96 -92 100 -108 38 -168 -24
-22 -56 -49 -72 -58 -27 -18 -30 -17 -72 3 -23 12 -43 29 -44 37 -1 39 -111
127 -144 114 -10 -4 -15 2 -18 23 -2 21 -9 29 -28 31 -13 2 -29 11 -35 19 -9
12 -21 14 -51 8 -51 -9 -136 -9 -201 0 -50 7 -52 7 -58 -18 -6 -22 -10 -25
-30 -17 -18 7 -29 3 -54 -19 -17 -15 -31 -35 -31 -44 0 -10 -7 -17 -15 -17 -9
0 -18 -7 -21 -15 -4 -8 -10 -15 -16 -15 -21 0 -78 -56 -78 -77 0 -12 -9 -27
-21 -34 -17 -9 -20 -17 -15 -44 5 -27 2 -38 -19 -59 -24 -24 -25 -30 -25 -143
0 -136 5 -160 32 -169 16 -5 19 -12 14 -35 -7 -38 2 -59 25 -59 15 0 18 -5 13
-24 -4 -17 1 -31 21 -50 14 -14 30 -26 35 -26 4 0 26 -19 47 -43 52 -58 104
-90 137 -81 20 5 26 2 26 -10 0 -26 31 -32 159 -30 101 2 126 5 133 18 5 9 17
16 27 16 11 0 28 8 40 18 21 16 22 24 19 172 l-3 154 -88 -3 c-49 -1 -109 3
-137 10 l-50 13 0 52 0 51 48 6 c26 4 161 9 300 13 235 6 254 6 272 -11 19
-17 20 -31 20 -245 0 -265 -3 -288 -39 -301 -14 -6 -33 -16 -41 -24 -8 -7 -28
-15 -45 -17 -22 -2 -31 -9 -33 -25 -3 -20 -6 -21 -24 -12 -29 16 -68 3 -68
-22 0 -18 -4 -20 -27 -15 -98 23 -143 15 -143 -24 0 -26 -12 -25 -55 4 -69 47
-268 47 -324 0 -35 -29 -51 -31 -51 -4 0 39 -63 52 -125 26 -34 -15 -35 -14
-35 8 0 25 -17 36 -55 36 -13 0 -27 5 -30 11 -4 5 -30 21 -58 34 -34 15 -87
57 -151 119 -54 53 -102 96 -108 96 -5 0 -8 8 -7 18 3 33 -1 42 -21 42 -18 0
-20 4 -14 41 6 35 4 41 -13 45 -19 5 -20 14 -19 197 0 106 -3 201 -7 213 -6
16 -2 23 18 32 19 9 25 19 25 45 0 20 8 39 20 50 11 9 20 23 20 31 0 7 7 19
15 26 8 7 15 22 16 34 1 26 161 176 188 176 10 0 26 9 36 20 10 11 26 20 37
20 10 0 26 9 35 20 11 12 30 20 49 20 22 0 33 5 37 19 4 16 12 18 56 13 55 -5
81 7 81 39 0 23 3 23 77 4z m-1507 -5 c14 -4 19 -8 13 -9 -20 -2 -15 -56 7
-84 11 -14 20 -33 20 -42 0 -9 9 -28 20 -42 11 -14 20 -34 20 -43 0 -10 6 -23
14 -29 8 -7 18 -25 21 -41 3 -16 13 -34 21 -41 8 -6 14 -21 14 -34 0 -12 9
-30 20 -40 11 -10 20 -29 20 -42 0 -16 7 -27 20 -30 15 -4 18 -11 14 -28 -4
-17 1 -29 15 -42 12 -9 21 -27 21 -40 0 -12 6 -28 14 -35 7 -8 17 -28 20 -45
4 -18 14 -37 22 -44 8 -6 14 -19 14 -29 0 -9 9 -27 20 -40 11 -13 20 -33 20
-45 0 -13 7 -25 15 -29 8 -3 15 -17 15 -31 0 -14 9 -30 20 -37 12 -8 20 -24
20 -40 0 -17 8 -33 19 -40 10 -6 17 -18 14 -26 -3 -7 4 -26 16 -42 11 -16 21
-37 21 -46 0 -8 9 -27 20 -41 11 -14 20 -34 20 -43 0 -10 7 -23 15 -30 8 -7
15 -21 15 -31 0 -11 9 -28 20 -39 22 -22 26 -60 8 -78 -8 -8 -58 -12 -160 -12
l-147 0 -31 30 c-17 17 -30 40 -30 54 0 15 -8 30 -20 36 -13 7 -20 21 -20 41
0 17 -6 32 -15 35 -8 4 -15 16 -15 29 0 12 -9 34 -20 48 -11 14 -20 32 -20 41
0 9 -10 21 -22 25 -13 5 -136 10 -273 10 l-251 2 -22 -30 c-12 -17 -22 -37
-22 -44 0 -8 -9 -26 -20 -40 -11 -14 -20 -32 -20 -40 0 -8 -6 -20 -14 -26 -8
-7 -18 -25 -21 -41 -3 -16 -13 -34 -21 -41 -8 -6 -14 -24 -14 -39 0 -24 -6
-29 -44 -40 -56 -15 -187 -10 -210 9 -15 12 -15 16 -1 31 8 9 15 25 15 36 0
11 9 25 20 32 11 7 20 23 20 37 0 14 7 28 15 31 8 4 15 18 15 33 0 15 8 31 20
39 11 7 20 23 20 36 0 12 9 31 20 41 11 10 20 26 20 35 0 10 7 23 15 30 8 7
15 20 15 29 0 9 9 30 20 46 11 17 20 36 20 43 0 8 9 25 20 39 11 14 20 34 20
43 0 10 7 23 15 30 8 7 15 19 15 27 0 8 9 26 20 40 11 14 20 36 20 48 0 13 7
25 15 29 8 3 15 18 15 33 0 17 8 33 20 41 11 7 20 21 20 32 0 11 9 29 20 40
11 11 20 28 20 39 0 10 7 24 15 31 8 7 15 22 15 34 0 12 9 29 20 39 11 9 20
25 20 36 0 10 6 24 14 30 8 7 18 25 21 41 3 16 13 34 21 41 8 6 14 21 14 34 0
12 9 30 20 40 11 10 20 27 20 37 0 10 6 21 14 24 8 3 17 16 20 30 6 22 11 24
69 23 34 -1 73 -5 87 -9z m3442 -25 c12 -14 30 -25 40 -25 14 0 16 -4 9 -22
-11 -30 -4 -48 19 -48 16 0 18 -6 13 -34 -4 -28 -2 -35 16 -41 15 -4 21 -15
21 -36 0 -17 6 -32 15 -35 8 -4 15 -19 15 -35 0 -16 8 -33 19 -41 11 -8 21
-27 23 -43 2 -22 9 -31 25 -33 19 -3 22 -9 20 -40 -2 -32 1 -37 20 -40 20 -3
21 -6 12 -23 -13 -25 -5 -49 16 -49 11 0 15 -10 15 -36 0 -26 5 -37 18 -41 14
-3 17 -12 14 -33 -3 -21 1 -31 17 -39 14 -8 21 -21 21 -41 0 -19 7 -33 20 -40
13 -7 20 -21 20 -40 0 -26 4 -30 26 -30 22 0 24 -3 19 -22 -4 -13 -7 -25 -7
-28 0 -23 5 -30 21 -30 17 0 19 -5 14 -35 -5 -31 -3 -35 16 -35 20 0 22 -4 16
-29 -5 -24 -2 -33 14 -43 13 -8 21 -23 21 -40 0 -17 8 -31 20 -38 13 -7 20
-21 20 -41 0 -17 6 -32 15 -35 9 -4 15 -19 15 -35 0 -22 6 -32 25 -39 32 -12
32 -33 -1 -59 -25 -19 -39 -21 -183 -20 -188 2 -215 6 -219 37 -2 12 -12 27
-22 32 -11 6 -20 23 -22 43 -2 24 -8 33 -25 35 -20 3 -21 6 -12 23 14 27 5 49
-22 49 -16 0 -19 4 -14 18 13 31 10 46 -10 56 -11 6 -19 18 -17 26 2 13 -32
15 -258 15 l-260 0 0 -22 c0 -12 -9 -27 -20 -33 -13 -7 -20 -21 -20 -39 0 -16
-6 -31 -14 -34 -8 -3 -17 -19 -21 -35 -3 -17 -13 -33 -21 -36 -8 -3 -14 -18
-14 -33 0 -16 -8 -36 -17 -44 -10 -9 -23 -24 -28 -34 -9 -14 -29 -18 -108 -23
-86 -4 -102 -2 -150 19 -49 22 -52 25 -33 34 12 6 23 22 24 35 2 13 13 30 23
38 11 8 19 25 19 43 0 18 5 29 14 29 17 0 26 22 20 48 -4 14 1 21 17 25 18 5
21 11 16 34 -5 23 -1 31 16 39 22 9 25 24 12 56 -6 15 -2 18 20 18 26 0 27 2
21 35 -6 31 -5 35 15 35 19 0 21 4 16 34 -5 30 -3 35 16 38 16 2 23 11 25 33
2 16 12 35 23 43 10 7 19 23 19 35 0 13 9 30 20 40 11 9 20 28 20 41 0 13 7
26 15 30 8 3 15 18 15 33 0 17 8 33 20 41 13 8 20 23 20 42 0 19 5 30 14 30
17 0 26 22 20 48 -4 14 1 21 17 25 18 5 21 11 16 36 -5 22 -3 31 7 31 24 0 39
26 27 48 -9 17 -7 21 15 26 23 6 25 10 20 41 -6 30 -4 34 16 37 19 2 23 8 20
34 -2 25 2 33 18 37 13 3 20 13 20 29 0 17 12 33 37 51 32 23 48 27 105 27 60
0 71 -3 90 -25z m2003 -32 c14 -13 16 -28 12 -65 -4 -27 -9 -53 -12 -59 -5 -6
-86 -9 -228 -8 l-222 1 -3 -587 c-1 -414 -5 -592 -13 -602 -15 -18 -319 -19
-337 -1 -9 9 -12 156 -12 599 l0 586 -61 7 c-34 3 -154 6 -265 6 l-204 0 0 48
c0 57 14 79 55 85 17 2 310 5 652 6 571 1 623 0 638 -16z m1436 7 c16 -9 19
-22 19 -80 0 -62 -2 -69 -22 -76 -12 -3 -161 -3 -330 1 l-308 7 0 -168 c0
-140 -3 -170 -16 -185 -9 -11 -14 -25 -10 -35 6 -16 27 -16 251 -10 185 5 258
4 300 -6 l55 -13 0 -57 c0 -34 -5 -60 -12 -65 -7 -4 -139 -10 -293 -13 -154
-3 -279 -8 -277 -12 1 -5 2 -102 2 -218 l0 -210 313 0 c178 0 318 -4 327 -10
21 -13 28 -169 9 -181 -16 -10 -983 -12 -1054 -2 l-48 6 6 296 c4 163 10 458
13 656 6 311 9 362 22 373 21 16 1022 18 1053 2z m-5110 -1387 l54 -16 -40
-13 c-54 -17 -230 -16 -275 1 -19 7 -33 14 -30 14 3 1 23 8 45 16 55 19 179
19 246 -2z"/>
<path d="M900 1021 c-5 -11 -10 -26 -10 -34 0 -8 -7 -17 -15 -21 -8 -3 -15
-17 -15 -31 0 -14 -9 -34 -21 -46 -12 -12 -18 -27 -15 -36 4 -10 -2 -21 -14
-30 -11 -8 -20 -24 -20 -36 0 -13 -9 -30 -20 -40 -11 -9 -20 -25 -20 -36 0
-10 -7 -24 -15 -31 -20 -16 -19 -36 1 -44 9 -3 92 -6 185 -6 128 0 169 3 170
13 3 37 -4 73 -17 83 -8 6 -14 20 -14 31 0 11 -9 30 -20 43 -11 13 -20 31 -20
41 0 10 -7 24 -15 33 -8 8 -18 28 -21 45 -4 16 -12 32 -20 35 -8 3 -14 19 -14
35 0 40 -34 61 -50 32z"/>
<path d="M4340 965 c0 -23 -5 -35 -14 -35 -14 0 -26 -21 -26 -46 0 -8 -8 -22
-19 -33 -12 -12 -17 -28 -14 -43 4 -20 0 -26 -17 -31 -19 -5 -22 -11 -17 -35
5 -24 2 -31 -13 -35 -11 -3 -20 -9 -20 -14 0 -10 282 -4 294 7 14 14 -1 40
-23 40 -17 0 -19 5 -14 36 5 30 3 36 -15 41 -17 4 -20 10 -15 35 5 24 2 30
-16 35 -16 4 -21 13 -21 37 -1 28 -28 76 -44 76 -3 0 -6 -16 -6 -35z"/>
</g>
</svg>
