<?xml version="1.0" standalone="no"?>
<!DOCTYPE svg PUBLIC "-//W3C//DTD SVG 20010904//EN"
 "http://www.w3.org/TR/2001/REC-SVG-20010904/DTD/svg10.dtd">
<svg version="1.0" xmlns="http://www.w3.org/2000/svg"
 width="245.000000pt" height="227.000000pt" viewBox="0 0 245.000000 227.000000"
 preserveAspectRatio="xMidYMid meet">
<metadata>
Created by potrace 1.15, written by Peter Selinger 2001-2017
</metadata>
<g transform="translate(0.000000,227.000000) scale(0.100000,-0.100000)"
fill="#000000" stroke="none">
<path d="M1110 2251 c-19 -10 -46 -33 -61 -52 -15 -19 -256 -430 -535 -914
l-509 -880 0 -77 c0 -85 10 -107 79 -162 l38 -31 451 -1 c249 0 391 2 315 5
-133 6 -137 7 -174 37 -52 42 -78 96 -78 161 1 49 17 80 364 680 199 345 372
639 384 652 29 33 94 61 141 61 71 0 128 -37 183 -116 26 -39 2 5 -83 151 -48
83 -100 168 -115 190 -15 22 -54 85 -85 140 -32 55 -65 108 -74 119 -48 55
-172 74 -241 37z"/>
</g>
</svg>
