<?xml version="1.0" standalone="no"?>
<!DOCTYPE svg PUBLIC "-//W3C//DTD SVG 20010904//EN"
 "http://www.w3.org/TR/2001/REC-SVG-20010904/DTD/svg10.dtd">
<svg version="1.0" xmlns="http://www.w3.org/2000/svg"
 width="91.000000pt" height="102.000000pt" viewBox="0 0 91.000000 102.000000"
 preserveAspectRatio="xMidYMid meet">
<metadata>
Created by potrace 1.15, written by Peter Selinger 2001-2017
</metadata>
<g transform="translate(0.000000,102.000000) scale(0.100000,-0.100000)"
fill="#000000" stroke="none">
<path d="M0 510 l0 -510 455 0 455 0 0 510 0 510 -455 0 -455 0 0 -510z m538
414 c26 -36 56 -80 67 -98 11 -19 69 -107 129 -197 164 -247 166 -251 166
-278 0 -58 17 -56 -434 -56 -393 0 -415 1 -435 19 -37 34 -27 66 65 208 48 73
116 178 152 233 36 55 81 125 100 155 45 71 58 80 104 80 35 0 41 -5 86 -66z"/>
</g>
</svg>
