<?xml version="1.0" standalone="no"?>
<!DOCTYPE svg PUBLIC "-//W3C//DTD SVG 20010904//EN"
 "http://www.w3.org/TR/2001/REC-SVG-20010904/DTD/svg10.dtd">
<svg version="1.0" xmlns="http://www.w3.org/2000/svg"
 width="3410.000000pt" height="858.000000pt" viewBox="0 0 3410.000000 858.000000"
 preserveAspectRatio="xMidYMid meet">
<metadata>
Created by potrace 1.15, written by Peter Selinger 2001-2017
</metadata>
<g transform="translate(0.000000,858.000000) scale(0.100000,-0.100000)"
fill="#000000" stroke="none">
<path d="M0 4290 l0 -4290 17050 0 17050 0 0 4290 0 4290 -17050 0 -17050 0 0
-4290z m31840 3325 l0 -45 -150 0 -150 0 0 -480 0 -480 -105 0 -105 0 0 480 0
480 -155 0 -155 0 0 45 0 45 410 0 410 0 0 -45z m572 -245 c66 -157 132 -315
146 -352 15 -38 29 -68 32 -68 3 0 70 159 150 353 l145 352 103 3 102 3 0
-526 0 -525 -105 0 -105 0 -2 337 -3 337 -139 -338 -139 -337 -45 3 -46 3
-140 332 -141 333 -3 -335 -2 -335 -70 0 -70 0 0 525 0 526 106 -3 106 -3 120
-285z m-29020 -183 c70 -34 146 -101 186 -165 17 -26 99 -191 183 -367 84
-176 167 -340 185 -365 30 -42 97 -180 536 -1100 802 -1681 1561 -3278 1586
-3335 43 -100 57 -188 43 -281 -21 -141 -97 -261 -202 -319 l-54 -30 -2535 0
-2535 0 -60 29 c-37 18 -85 55 -125 95 -109 109 -163 249 -163 421 0 162 -21
112 441 1080 194 408 700 1470 979 2055 113 237 296 619 406 850 110 231 223
470 252 530 29 61 98 205 152 320 170 358 202 419 242 465 48 56 101 94 178
126 50 21 70 24 153 22 80 -3 105 -8 152 -31z m11838 -482 c641 -105 1250
-530 1625 -1133 l57 -92 -38 -43 c-22 -23 -117 -129 -213 -234 -96 -106 -177
-193 -180 -193 -3 0 -35 47 -70 105 -260 429 -545 725 -836 866 -155 76 -268
102 -450 102 -106 1 -178 -5 -245 -18 -462 -88 -829 -391 -1056 -871 -299
-634 -327 -1592 -64 -2255 247 -623 721 -988 1330 -1024 270 -16 516 52 711
197 l69 52 0 683 0 683 -360 0 -360 0 0 220 0 220 880 0 880 0 0 -993 0 -992
-144 -88 c-378 -230 -721 -372 -1064 -442 -252 -51 -345 -59 -712 -59 -387 -1
-493 10 -755 78 -427 111 -816 334 -1105 632 -385 398 -620 916 -685 1511 -20
185 -20 528 1 725 135 1332 1032 2271 2269 2377 144 13 395 6 515 -14z m-5223
-238 c169 -446 424 -1119 523 -1382 54 -143 134 -354 178 -470 44 -115 151
-397 237 -625 86 -228 193 -509 237 -625 44 -115 124 -327 178 -470 54 -143
198 -522 319 -843 122 -321 221 -586 221 -588 0 -2 -239 -3 -532 -2 l-532 3
-87 230 c-48 127 -168 442 -266 700 l-179 470 -823 0 -823 0 -104 -260 c-56
-143 -182 -458 -278 -700 l-175 -440 -352 -3 -351 -2 6 24 c3 14 58 157 122
318 64 161 140 354 169 428 52 133 239 608 390 990 85 214 173 440 270 685 35
88 156 396 270 685 114 289 227 575 250 635 24 61 162 412 307 780 146 369
267 678 271 688 6 15 26 17 234 17 l228 0 92 -243z m10437 116 c50 -133 453
-1195 651 -1718 63 -165 189 -498 280 -740 92 -242 267 -705 390 -1030 123
-324 312 -822 419 -1107 108 -284 196 -519 196 -522 0 -3 -239 -5 -531 -4
l-532 3 -136 360 c-76 198 -193 506 -260 685 -68 179 -128 333 -133 343 -8 16
-58 17 -827 17 l-818 0 -16 -37 c-9 -21 -136 -337 -281 -703 l-264 -665 -351
-3 c-227 -1 -351 1 -351 8 0 5 33 94 74 197 41 104 196 499 346 878 150 380
301 762 335 850 35 88 98 248 140 355 79 200 288 729 400 1015 199 505 269
682 550 1395 114 289 210 531 212 538 4 9 60 12 232 12 l227 0 48 -127z m6136
-198 l0 -215 -730 0 -730 0 -2 -2352 -3 -2353 -517 -3 -518 -2 -2 2352 -3
2353 -737 3 -738 2 0 215 0 215 1990 0 1990 0 0 -215z m4350 0 l0 -215 -1062
-2 -1063 -3 -3 -847 -2 -848 885 0 885 0 0 -220 0 -220 -885 0 -885 0 0 -1020
0 -1020 1065 0 1065 0 0 -265 0 -265 -1585 0 -1585 0 0 2570 0 2570 1585 0
1585 0 0 -215z"/>
<path d="M9291 4468 c-112 -288 -252 -648 -312 -800 -60 -153 -111 -289 -115
-303 l-6 -25 630 0 c347 0 633 3 635 8 2 4 -50 151 -118 327 -67 176 -206 544
-310 818 -104 273 -191 497 -194 497 -4 0 -98 -235 -210 -522z"/>
<path d="M19972 4980 c-6 -14 -78 -200 -162 -415 -84 -214 -188 -481 -231
-592 -188 -484 -239 -616 -239 -624 0 -11 1257 -12 1263 -1 4 6 -83 240 -388
1042 -30 80 -95 251 -144 380 -79 206 -91 232 -99 210z"/>
</g>
</svg>
